<?xml version="1.0" encoding="iso-8859-1"?>
<!-- Generator: Adobe Illustrator 19.0.0, SVG Export Plug-In . SVG Version: 6.00 Build 0)  -->
<svg version="1.1" id="Capa_1" xmlns="http://www.w3.org/2000/svg" xmlns:xlink="http://www.w3.org/1999/xlink" x="0px" y="0px"
	 viewBox="0 0 469.333 469.333" style="enable-background:new 0 0 469.333 469.333;" xml:space="preserve">
<path style="fill:#303C42;" d="M426.667,0h-384C19.146,0,0,19.135,0,42.667v384c0,23.531,19.146,42.667,42.667,42.667h384
	c23.521,0,42.667-19.135,42.667-42.667v-384C469.333,19.135,450.188,0,426.667,0z"/>
<path style="fill:#7CB342;" d="M448,426.667c0,11.76-9.563,21.333-21.333,21.333h-384c-11.771,0-21.333-9.573-21.333-21.333v-384
	c0-11.76,9.563-21.333,21.333-21.333h384c11.771,0,21.333,9.573,21.333,21.333V426.667z"/>
<path style="fill:#303C42;" d="M365.583,131.344L192.188,314.927l-88.25-98.063c-3.979-4.385-10.708-4.729-15.083-0.792
	s-4.729,10.688-0.792,15.063l96,106.667c2,2.219,4.833,3.49,7.813,3.531c0.042,0,0.083,0,0.125,0c2.938,0,5.729-1.208,7.75-3.344
	l181.333-192c4.042-4.281,3.854-11.031-0.417-15.073C376.396,126.865,369.604,127.063,365.583,131.344z"/>
<linearGradient id="SVGID_1_" gradientUnits="userSpaceOnUse" x1="-53.9222" y1="613.2875" x2="-45.2064" y2="604.5668" gradientTransform="matrix(21.3333 0 0 -21.3333 1430.1112 13315.2227)">
	<stop  offset="0" style="stop-color:#000000;stop-opacity:0.1"/>
	<stop  offset="1" style="stop-color:#000000;stop-opacity:0"/>
</linearGradient>
<path style="fill:url(#SVGID_1_);" d="M380.667,130.917c4.271,4.042,4.458,10.792,0.417,15.073l-181.333,192
	c-2.021,2.135-4.813,3.344-7.75,3.344c-0.042,0-0.083,0-0.125,0c-2.979-0.042-5.813-1.313-7.813-3.531L294.26,448h132.406
	c11.771,0,21.333-9.573,21.333-21.333V198.25L380.667,130.917z"/>
<linearGradient id="SVGID_2_" gradientUnits="userSpaceOnUse" x1="-68.6887" y1="619.0511" x2="-43.3842" y2="607.2509" gradientTransform="matrix(21.3333 0 0 -21.3333 1430.1112 13315.2227)">
	<stop  offset="0" style="stop-color:#FFFFFF;stop-opacity:0.2"/>
	<stop  offset="1" style="stop-color:#FFFFFF;stop-opacity:0"/>
</linearGradient>
<path style="fill:url(#SVGID_2_);" d="M426.667,0h-384C19.146,0,0,19.135,0,42.667v384c0,23.531,19.146,42.667,42.667,42.667h384
	c23.521,0,42.667-19.135,42.667-42.667v-384C469.333,19.135,450.188,0,426.667,0z"/>
<g>
</g>
<g>
</g>
<g>
</g>
<g>
</g>
<g>
</g>
<g>
</g>
<g>
</g>
<g>
</g>
<g>
</g>
<g>
</g>
<g>
</g>
<g>
</g>
<g>
</g>
<g>
</g>
<g>
</g>
</svg>
