<svg id="svg" version="1.1" xmlns="http://www.w3.org/2000/svg" xmlns:xlink="http://www.w3.org/1999/xlink" width="400" height="385.03401360544217" viewBox="0, 0, 400,385.03401360544217"><g id="svgg"><path id="path0" d="M196.873 65.922 C 194.835 66.068,192.580 66.367,191.863 66.587 C 191.146 66.806,189.345 67.190,187.861 67.438 C 185.469 67.839,183.741 68.266,178.805 69.679 C 175.053 70.753,170.894 72.364,166.474 74.456 C 160.646 77.215,158.655 78.243,157.966 78.849 C 157.631 79.143,157.253 79.383,157.126 79.383 C 156.885 79.383,151.500 82.994,148.170 85.389 C 147.110 86.151,145.136 87.756,143.783 88.956 C 142.430 90.155,141.099 91.268,140.826 91.429 C 138.145 93.001,127.172 106.563,123.364 113.010 C 122.016 115.291,120.760 117.252,120.573 117.368 C 120.385 117.484,120.231 117.892,120.231 118.275 C 120.231 118.658,119.911 119.385,119.519 119.890 C 119.128 120.396,118.681 121.329,118.526 121.965 C 118.371 122.601,118.023 123.382,117.754 123.699 C 116.830 124.787,111.753 139.412,111.753 140.985 C 111.753 141.455,111.419 143.263,111.011 145.004 C 108.748 154.656,108.739 172.988,110.993 182.659 C 111.412 184.461,111.755 186.281,111.753 186.705 C 111.750 187.583,113.344 192.899,114.643 196.339 C 116.183 200.419,117.604 203.975,117.943 204.597 C 118.125 204.930,118.807 206.329,119.459 207.707 C 120.110 209.085,121.233 211.166,121.954 212.331 C 122.674 213.497,123.819 215.405,124.499 216.570 C 125.559 218.389,130.434 225.162,131.598 226.434 C 131.811 226.666,133.195 228.227,134.673 229.902 C 137.352 232.937,138.447 234.004,143.519 238.524 L 146.191 240.905 146.740 239.817 C 147.043 239.218,148.138 237.913,149.175 236.916 C 150.212 235.920,151.060 234.788,151.060 234.401 C 151.060 234.014,151.318 233.329,151.634 232.878 C 151.950 232.427,152.741 230.611,153.392 228.842 C 154.043 227.073,155.005 225.176,155.530 224.627 C 156.054 224.077,156.588 222.986,156.715 222.203 C 156.848 221.381,157.251 220.616,157.668 220.393 C 158.236 220.090,158.307 219.849,158.001 219.277 C 157.468 218.281,157.515 217.341,158.160 216.105 C 158.459 215.531,158.917 214.109,159.178 212.946 C 159.591 211.100,159.779 210.815,160.654 210.714 C 161.638 210.599,161.658 210.540,161.685 207.514 C 161.716 204.103,162.651 199.943,163.720 198.459 C 164.670 197.140,165.315 195.150,165.332 193.488 C 165.379 188.657,168.063 184.392,170.635 185.059 C 171.313 185.235,171.881 185.590,171.896 185.849 C 171.911 186.108,172.060 185.973,172.227 185.549 C 172.581 184.649,171.279 182.715,170.295 182.680 C 169.336 182.647,169.203 182.294,169.733 181.184 C 170.004 180.618,170.619 179.330,171.101 178.323 C 172.009 176.425,174.923 173.410,175.849 173.410 C 176.141 173.410,176.908 172.905,177.555 172.287 C 179.346 170.575,185.225 170.165,186.617 171.655 C 186.865 171.921,187.341 172.066,187.674 171.979 C 189.042 171.622,192.708 173.405,192.274 174.216 C 191.750 175.195,192.174 175.844,193.166 175.584 C 196.042 174.832,200.501 183.140,199.755 187.861 C 199.348 190.439,198.319 194.516,197.655 196.179 C 196.888 198.103,197.276 200.771,198.323 200.771 C 198.601 200.771,200.108 199.470,201.672 197.881 C 203.348 196.178,204.836 194.990,205.294 194.990 C 205.722 194.990,206.310 194.655,206.600 194.244 C 207.125 193.504,207.917 193.324,210.282 193.406 C 212.065 193.468,213.369 195.341,212.721 196.907 C 212.417 197.642,212.386 198.239,212.630 198.675 C 213.093 199.502,212.102 202.202,211.148 202.712 C 210.783 202.907,209.971 204.155,209.343 205.483 C 208.090 208.134,205.846 210.673,204.270 211.222 C 202.989 211.669,202.079 213.023,202.666 213.610 C 203.338 214.283,203.135 215.090,201.726 217.341 C 200.996 218.507,200.241 219.814,200.047 220.247 C 199.853 220.680,199.417 221.264,199.077 221.547 C 198.737 221.829,198.459 222.204,198.459 222.381 C 198.459 222.557,198.025 223.341,197.495 224.121 C 196.965 224.902,196.532 225.859,196.532 226.246 C 196.532 227.198,194.366 231.449,192.969 233.239 C 192.334 234.052,191.261 236.451,190.519 238.714 C 187.663 247.428,185.706 250.042,182.962 248.803 C 182.266 248.488,181.262 248.108,180.732 247.958 C 178.866 247.430,176.460 245.755,175.853 244.561 C 175.035 242.950,175.081 242.975,174.326 243.731 C 173.641 244.415,171.489 244.337,170.022 243.575 C 169.660 243.387,168.194 242.661,166.763 241.961 C 164.758 240.981,164.162 240.501,164.162 239.865 C 164.162 238.347,161.595 237.004,160.886 238.150 C 160.528 238.730,159.376 238.619,156.822 237.759 C 153.981 236.802,153.245 236.973,150.720 239.182 C 149.585 240.175,148.297 240.955,147.740 240.986 L 146.760 241.040 148.043 242.136 C 148.748 242.739,149.933 243.643,150.674 244.146 C 151.416 244.648,152.717 245.548,153.565 246.146 C 160.069 250.736,172.215 256.233,181.310 258.704 C 195.726 262.621,215.107 263.381,226.036 260.458 C 227.533 260.058,229.170 259.730,229.674 259.730 C 231.028 259.730,237.737 257.622,243.931 255.250 C 246.968 254.086,256.813 249.209,257.803 248.377 C 258.121 248.110,259.249 247.393,260.308 246.784 C 261.368 246.175,262.495 245.463,262.813 245.202 C 263.131 244.940,264.633 243.810,266.150 242.691 C 279.358 232.946,290.549 218.964,297.234 203.854 C 297.562 203.112,298.346 201.347,298.975 199.931 C 299.604 198.516,300.243 196.782,300.393 196.078 C 300.544 195.374,300.805 194.624,300.975 194.412 C 301.367 193.921,302.838 188.291,303.492 184.778 C 303.769 183.295,304.191 181.214,304.431 180.154 C 304.671 179.094,305.102 175.106,305.390 171.291 C 306.194 160.620,305.438 150.850,303.034 140.848 C 302.729 139.576,302.313 137.755,302.110 136.802 C 301.907 135.848,301.499 134.461,301.203 133.719 C 300.906 132.977,300.186 131.069,299.601 129.480 C 298.102 125.406,293.827 116.302,292.775 114.945 C 292.247 114.262,289.788 110.149,289.788 109.947 C 289.788 109.804,288.922 108.586,287.375 106.551 C 277.855 94.034,270.462 87.221,257.996 79.479 C 254.311 77.190,241.146 70.906,240.036 70.906 C 239.749 70.906,238.644 70.577,237.580 70.175 C 235.171 69.265,233.765 68.910,225.819 67.199 C 219.025 65.737,206.907 65.202,196.873 65.922 M212.409 67.456 C 214.313 67.833,217.555 69.005,218.882 69.796 C 219.200 69.985,219.894 70.351,220.424 70.608 C 222.347 71.542,225.678 74.185,227.999 76.618 L 230.372 79.106 233.394 79.405 C 239.890 80.046,245.753 82.519,250.037 86.425 C 251.566 87.818,254.335 91.106,254.335 91.528 C 254.335 91.671,254.652 92.249,255.038 92.811 C 257.787 96.811,258.618 106.029,256.660 110.790 C 253.965 117.340,246.421 124.458,241.130 125.444 C 238.933 125.853,237.497 127.411,237.207 129.699 C 237.075 130.744,236.805 132.553,236.608 133.719 C 236.411 134.884,236.065 137.746,235.838 140.077 C 235.612 142.408,235.170 145.963,234.857 147.977 C 234.545 149.990,234.114 153.719,233.902 156.262 C 233.337 163.011,231.992 166.309,229.926 166.014 L 229.094 165.896 228.902 140.779 C 228.712 116.035,228.697 115.647,227.901 114.575 C 226.881 113.200,224.971 112.688,222.929 113.242 C 220.191 113.985,220.245 113.663,220.118 130.269 L 220.005 145.124 221.563 146.376 L 223.121 147.628 223.121 157.374 L 223.121 167.121 222.140 167.568 C 221.600 167.814,219.701 168.015,217.919 168.015 C 216.137 168.015,214.238 167.814,213.698 167.568 L 212.717 167.121 212.719 151.865 C 212.722 135.576,212.768 135.143,214.659 133.819 C 216.382 132.612,216.542 131.624,216.333 123.469 C 216.119 115.083,215.961 113.574,215.394 114.471 C 215.200 114.778,215.038 117.234,215.035 119.929 C 215.029 124.481,214.973 124.859,214.234 125.254 C 212.668 126.092,212.331 125.200,212.331 120.216 C 212.331 117.715,212.226 115.396,212.097 115.060 C 211.512 113.535,211.175 114.772,211.175 118.449 C 211.175 123.477,210.914 124.834,209.868 125.225 C 208.639 125.685,208.491 125.113,208.478 119.846 C 208.457 110.688,207.220 110.611,206.936 119.750 C 206.830 123.160,206.611 126.082,206.448 126.244 C 205.594 127.095,205.193 125.315,205.010 119.858 C 204.832 114.573,204.766 114.162,204.169 114.600 C 202.984 115.469,202.972 132.434,204.156 133.281 C 204.640 133.628,205.421 134.199,205.890 134.551 L 206.744 135.191 206.853 151.067 C 206.932 162.646,206.841 167.088,206.516 167.479 C 205.960 168.149,196.902 168.239,195.048 167.592 L 193.834 167.169 193.834 152.530 L 193.834 137.891 196.146 135.483 C 197.418 134.159,198.459 132.953,198.459 132.803 C 198.459 132.654,198.849 132.004,199.326 131.359 C 200.874 129.264,200.623 121.168,198.917 118.217 C 193.666 109.132,183.224 112.673,182.003 123.953 C 181.577 127.888,183.843 133.865,186.393 135.536 C 188.396 136.848,188.439 137.210,188.439 152.455 C 188.439 164.881,188.364 166.689,187.823 167.287 C 186.184 169.098,181.118 163.957,181.118 160.482 C 181.118 159.882,180.779 157.560,180.366 155.322 C 179.953 153.084,179.435 149.952,179.215 148.362 C 178.199 141.011,177.626 137.244,177.282 135.645 C 177.076 134.692,176.707 132.588,176.462 130.970 C 175.929 127.453,174.333 125.627,171.788 125.626 C 168.703 125.624,160.451 119.579,157.733 115.331 C 151.498 105.583,155.096 89.436,164.588 84.571 C 165.307 84.202,165.983 83.780,166.089 83.634 C 166.905 82.505,175.035 79.777,177.634 79.760 C 180.719 79.739,181.713 79.211,185.038 75.825 C 192.148 68.586,202.351 65.466,212.409 67.456 M251.895 160.229 C 252.283 160.422,253.265 160.900,254.076 161.292 C 255.560 162.007,256.647 163.509,256.647 164.842 C 256.647 165.275,257.150 165.800,257.911 166.163 C 260.499 167.397,262.079 177.600,259.815 178.461 C 258.920 178.801,258.899 178.870,259.487 179.520 C 260.444 180.577,260.358 186.022,259.350 188.234 C 258.655 189.760,258.638 190.014,259.155 191.007 C 260.240 193.086,259.534 199.707,257.992 201.933 C 257.142 203.160,257.090 203.449,257.472 204.827 C 258.429 208.278,257.387 214.258,255.830 214.258 C 254.955 214.258,254.903 214.602,255.689 215.179 C 257.265 216.335,257.586 226.354,256.069 227.045 C 254.961 227.550,254.871 227.951,255.684 228.764 C 256.039 229.119,256.262 230.063,256.262 231.210 C 256.262 232.446,256.596 233.743,257.251 235.046 C 258.380 237.293,258.370 238.683,257.225 238.821 C 256.428 238.917,254.335 236.142,254.335 234.988 C 254.335 233.583,252.523 232.647,249.433 232.456 C 247.784 232.354,245.943 232.021,245.341 231.715 C 244.378 231.225,244.064 231.231,242.732 231.764 C 240.228 232.766,235.758 232.576,233.277 231.362 C 231.183 230.337,229.184 230.592,228.317 231.995 C 227.523 233.280,219.693 232.108,219.122 230.619 C 218.737 229.616,218.865 218.076,219.281 216.273 C 219.589 214.939,219.541 214.445,219.026 213.660 C 218.496 212.850,218.424 211.932,218.584 208.038 C 218.739 204.273,218.645 202.966,218.093 201.193 C 217.222 198.392,216.692 192.116,217.295 191.743 C 217.901 191.369,217.833 190.080,217.188 189.711 C 215.846 188.942,214.927 186.502,214.824 183.432 C 214.756 181.411,214.516 180.103,214.105 179.516 C 213.354 178.444,213.305 175.889,214.008 174.541 C 214.292 173.997,214.636 173.107,214.772 172.564 C 215.338 170.309,220.010 170.518,220.981 172.842 C 221.272 173.538,221.865 174.220,222.299 174.357 C 223.328 174.684,225.819 179.642,225.819 181.362 C 225.819 183.212,226.602 183.018,228.555 180.685 C 230.054 178.896,230.147 178.667,229.555 178.235 C 227.745 176.911,229.736 168.287,232.099 167.210 C 232.635 166.966,233.334 166.039,233.782 164.980 C 234.913 162.303,238.118 160.321,240.757 160.666 C 241.025 160.701,241.632 160.452,242.106 160.113 C 243.053 159.436,250.479 159.523,251.895 160.229 M188.098 177.019 C 187.753 177.434,187.746 177.651,188.069 177.851 C 188.666 178.220,189.250 177.567,188.871 176.953 C 188.625 176.556,188.471 176.569,188.098 177.019 M217.973 177.146 C 217.539 177.580,217.709 178.035,218.304 178.035 C 218.622 178.035,218.882 177.872,218.882 177.672 C 218.882 177.186,218.281 176.838,217.973 177.146 M179.843 180.208 C 179.536 180.516,179.884 181.118,180.370 181.118 C 180.569 181.118,180.732 180.857,180.732 180.539 C 180.732 179.944,180.277 179.774,179.843 180.208 M224.663 183.815 C 224.663 184.239,224.836 184.586,225.048 184.586 C 225.260 184.586,225.434 184.239,225.434 183.815 C 225.434 183.391,225.260 183.044,225.048 183.044 C 224.836 183.044,224.663 183.391,224.663 183.815 M166.563 197.688 C 166.563 198.430,166.643 198.733,166.740 198.362 C 166.837 197.991,166.837 197.384,166.740 197.013 C 166.643 196.643,166.563 196.946,166.563 197.688 M207.127 199.232 C 206.825 199.721,207.904 200.162,208.501 199.793 C 208.825 199.593,208.804 199.429,208.423 199.187 C 207.734 198.751,207.418 198.761,207.127 199.232 M178.728 201.233 C 179.088 201.593,179.294 201.593,179.653 201.233 C 180.013 200.873,179.910 200.771,179.191 200.771 C 178.471 200.771,178.369 200.873,178.728 201.233 M198.908 202.366 C 198.979 202.866,199.210 203.232,199.422 203.179 C 199.991 203.037,199.890 201.826,199.293 201.627 C 198.941 201.509,198.820 201.742,198.908 202.366 M187.669 228.131 C 187.669 228.343,188.015 228.516,188.439 228.516 C 188.863 228.516,189.210 228.343,189.210 228.131 C 189.210 227.919,188.863 227.746,188.439 227.746 C 188.015 227.746,187.669 227.919,187.669 228.131 M159.538 230.443 C 159.538 231.079,159.711 231.599,159.923 231.599 C 160.135 231.599,160.308 231.079,160.308 230.443 C 160.308 229.807,160.135 229.287,159.923 229.287 C 159.711 229.287,159.538 229.807,159.538 230.443 M324.085 273.216 C 321.435 273.580,318.234 274.163,316.971 274.511 C 315.708 274.859,314.357 275.145,313.969 275.145 C 312.958 275.145,310.215 276.616,309.953 277.299 C 309.831 277.617,310.435 279.392,311.295 281.244 C 312.156 283.096,313.230 285.819,313.682 287.296 C 315.187 292.213,316.023 292.954,318.267 291.356 C 318.883 290.918,319.538 290.559,319.723 290.559 C 319.908 290.559,320.488 290.258,321.013 289.890 C 323.971 287.813,336.039 284.984,338.889 285.699 C 342.609 286.633,337.773 294.452,332.702 295.704 C 328.967 296.625,328.655 297.012,328.791 300.555 L 328.902 303.468 331.214 304.267 C 338.549 306.802,341.545 312.525,335.536 312.524 C 332.542 312.523,322.776 310.754,320.809 309.857 C 315.768 307.555,314.801 308.148,314.252 313.873 C 314.109 315.356,313.576 317.771,313.066 319.239 C 311.432 323.942,311.394 323.910,319.656 324.861 C 338.225 327.000,350.829 322.304,356.590 311.101 C 357.270 309.778,357.216 309.684,355.560 309.287 C 354.711 309.084,354.256 308.554,353.485 306.870 C 352.903 305.601,351.567 303.783,350.237 302.453 C 347.416 299.632,347.425 299.394,350.464 296.383 C 352.800 294.068,354.416 291.475,355.175 288.825 C 355.467 287.804,355.697 287.655,357.136 287.550 C 358.033 287.485,358.767 287.263,358.767 287.056 C 358.767 285.147,354.620 280.422,350.933 278.130 C 342.844 273.101,335.165 271.696,324.085 273.216 M92.244 274.855 C 91.826 275.332,90.975 276.503,90.353 277.457 C 89.731 278.410,88.439 280.257,87.482 281.561 C 86.525 282.865,85.395 284.425,84.971 285.028 C 82.639 288.347,75.807 295.159,74.688 295.279 L 73.796 295.376 73.835 290.366 C 73.857 287.611,74.082 283.590,74.336 281.432 C 74.949 276.214,74.777 275.915,71.155 275.915 C 69.698 275.915,66.349 275.627,63.712 275.276 C 57.889 274.499,57.700 274.587,58.188 277.842 C 59.911 289.314,58.256 311.427,54.874 322.130 C 53.725 325.768,54.368 326.407,58.079 325.314 C 62.347 324.058,66.046 323.291,69.610 322.923 C 74.396 322.429,74.194 322.872,73.609 314.159 C 73.069 306.109,73.237 304.955,74.861 305.543 C 76.963 306.303,82.775 314.359,86.054 321.058 C 88.636 326.332,88.687 326.364,92.027 324.790 C 95.222 323.284,98.996 321.872,101.582 321.213 C 106.976 319.839,106.964 319.574,101.232 313.756 C 94.245 306.664,90.390 301.926,89.613 299.476 C 89.350 298.648,89.951 297.110,90.538 297.110 C 91.399 297.110,97.566 293.378,102.312 289.986 C 109.215 285.052,109.439 284.603,105.948 282.682 C 102.284 280.666,100.110 279.180,96.959 276.538 C 93.582 273.706,93.332 273.617,92.244 274.855 M232.480 274.579 C 231.870 275.025,231.873 275.245,232.522 278.086 C 232.902 279.753,233.389 281.985,233.603 283.044 C 234.027 285.138,233.768 289.486,233.119 291.194 C 232.152 293.738,233.208 294.519,235.924 293.268 C 239.447 291.645,245.462 289.571,248.748 288.845 C 250.019 288.564,252.234 288.029,253.670 287.655 C 257.468 286.666,258.334 287.110,257.599 289.670 C 255.704 296.280,250.438 306.663,245.235 314.051 C 238.546 323.549,238.594 322.921,244.552 323.111 C 249.531 323.269,253.914 324.063,259.090 325.743 L 262.881 326.975 263.555 326.143 C 263.964 325.638,264.411 323.977,264.695 321.905 C 265.691 314.632,268.747 301.146,270.225 297.495 C 270.440 296.965,271.013 295.405,271.499 294.027 C 271.985 292.649,272.727 290.550,273.147 289.362 C 273.568 288.174,274.091 286.874,274.309 286.472 C 274.527 286.070,275.403 284.268,276.255 282.466 C 277.107 280.665,278.269 278.378,278.838 277.386 C 280.507 274.469,280.205 274.261,274.857 274.635 C 268.522 275.078,238.058 274.969,235.351 274.494 C 233.678 274.200,232.970 274.221,232.480 274.579 M141.233 274.842 C 121.590 276.222,108.885 286.644,108.917 301.349 C 108.935 309.108,113.058 315.075,120.617 318.278 C 125.124 320.188,125.010 320.029,123.491 322.265 L 122.511 323.706 123.570 324.109 C 130.267 326.655,147.926 323.915,155.491 319.155 C 159.416 316.686,164.547 311.222,164.547 309.511 C 164.547 309.315,164.934 308.308,165.407 307.274 C 166.893 304.027,166.662 294.747,165.008 291.253 C 163.031 287.075,159.926 284.085,155.095 281.708 C 150.574 279.484,150.590 279.509,152.287 277.366 C 153.869 275.369,153.256 274.759,149.669 274.759 C 148.349 274.759,147.038 274.699,146.756 274.625 C 146.474 274.551,143.988 274.649,141.233 274.842 M224.470 275.028 C 223.834 275.119,222.447 275.465,221.387 275.795 C 220.016 276.224,216.998 276.466,210.917 276.638 C 201.132 276.914,201.616 276.732,202.296 279.876 C 203.210 284.102,203.411 286.027,203.440 290.820 C 203.478 297.097,203.834 297.514,206.627 294.561 C 210.450 290.519,211.427 292.279,210.397 301.349 C 209.680 307.655,207.338 318.144,205.620 322.736 C 204.324 326.201,205.083 326.809,209.089 325.516 C 212.898 324.287,217.999 323.323,222.654 322.953 C 227.159 322.595,227.190 322.564,226.534 319.015 C 225.787 314.968,225.800 290.388,226.552 286.199 C 226.849 284.543,227.109 281.335,227.130 279.070 C 227.172 274.518,227.245 274.629,224.470 275.028 M148.663 289.069 C 157.715 298.031,145.916 312.824,133.272 308.366 C 130.907 307.532,130.250 307.734,130.250 309.294 C 130.250 314.558,124.376 309.324,123.809 303.555 C 123.082 296.152,129.448 290.751,138.902 290.751 L 143.894 290.751 145.045 289.114 C 146.466 287.092,146.664 287.090,148.663 289.069 M192.100 294.675 C 189.729 295.616,178.971 295.853,175.773 295.034 C 171.596 293.963,171.869 293.644,171.869 299.601 C 171.869 305.964,171.587 305.703,177.649 304.972 C 181.267 304.536,183.296 304.521,188.703 304.889 C 197.145 305.463,196.586 305.869,196.446 299.269 L 196.339 294.220 194.990 294.141 C 194.249 294.098,192.948 294.338,192.100 294.675 M301.541 294.683 C 299.041 295.659,288.647 295.844,284.970 294.977 C 281.359 294.127,281.507 293.932,281.494 299.549 C 281.480 305.430,281.607 305.746,283.851 305.410 C 289.450 304.570,292.624 304.456,298.534 304.882 C 306.474 305.454,305.973 305.822,305.973 299.416 C 305.973 293.545,305.567 293.112,301.541 294.683 " stroke="none" fill="#248bac" fill-rule="evenodd"></path><path id="path1" d="M0.000 192.678 L 0.000 385.356 200.000 385.356 L 400.000 385.356 400.000 192.678 L 400.000 0.000 200.000 0.000 L 0.000 0.000 0.000 192.678 M222.302 60.290 C 227.029 61.008,232.464 62.216,235.551 63.236 C 236.770 63.639,238.071 63.975,238.441 63.982 C 238.811 63.989,239.807 64.330,240.655 64.740 C 241.503 65.149,242.507 65.490,242.886 65.498 C 243.266 65.505,244.256 65.857,245.087 66.281 C 245.918 66.705,246.786 67.052,247.016 67.052 C 247.749 67.052,258.822 72.716,261.277 74.347 C 262.576 75.209,263.707 75.915,263.790 75.915 C 263.874 75.915,264.685 76.441,265.593 77.084 C 266.502 77.727,267.678 78.545,268.208 78.902 C 274.202 82.944,283.756 92.133,289.144 99.037 C 292.107 102.833,297.110 110.216,297.110 110.793 C 297.110 110.876,297.610 111.690,298.222 112.601 C 298.834 113.513,300.052 115.819,300.930 117.726 C 301.808 119.634,302.677 121.467,302.861 121.800 C 304.444 124.664,307.361 133.471,308.723 139.499 C 310.383 146.846,310.523 147.860,311.359 158.534 C 311.783 163.942,311.180 175.083,310.190 180.154 C 309.983 181.214,309.561 183.468,309.252 185.164 C 308.698 188.204,308.361 189.486,306.717 194.798 C 305.747 197.933,303.338 204.255,302.900 204.817 C 302.734 205.029,302.470 205.636,302.313 206.166 C 301.827 207.798,298.722 213.804,297.104 216.240 C 296.259 217.511,295.568 218.634,295.568 218.736 C 295.568 219.980,287.160 230.588,282.004 235.850 C 272.310 245.741,265.489 250.713,252.987 256.999 C 247.829 259.592,246.281 260.250,242.389 261.499 C 241.435 261.805,240.109 262.312,239.441 262.627 C 238.773 262.941,237.971 263.198,237.659 263.198 C 237.347 263.198,236.332 263.469,235.405 263.800 C 222.261 268.489,192.869 268.487,179.624 263.796 C 178.697 263.467,177.656 263.193,177.312 263.185 C 176.968 263.178,175.992 262.837,175.145 262.428 C 174.297 262.018,173.293 261.677,172.913 261.670 C 172.534 261.663,171.544 261.310,170.713 260.886 C 169.882 260.462,169.015 260.116,168.785 260.116 C 168.067 260.116,161.310 256.905,156.840 254.440 C 142.281 246.412,127.150 231.964,119.181 218.481 C 118.169 216.770,116.950 214.729,116.473 213.947 C 115.995 213.164,114.977 211.224,114.210 209.634 C 113.442 208.044,112.680 206.471,112.517 206.138 C 110.731 202.513,106.358 189.771,106.358 188.196 C 106.358 187.774,106.025 186.139,105.617 184.562 C 105.209 182.985,104.679 179.875,104.439 177.649 C 104.199 175.424,103.849 172.303,103.660 170.713 C 103.222 167.022,103.220 159.794,103.655 156.069 C 104.687 147.252,105.256 143.326,105.777 141.438 C 106.097 140.279,106.361 138.979,106.365 138.548 C 106.374 137.458,109.494 127.884,110.764 125.048 C 111.049 124.412,111.413 123.459,111.572 122.929 C 111.731 122.399,112.184 121.361,112.578 120.622 C 112.972 119.884,113.295 119.134,113.295 118.957 C 113.295 118.779,114.271 116.956,115.465 114.905 C 116.659 112.854,117.903 110.655,118.230 110.019 C 118.879 108.758,122.229 103.603,122.916 102.807 C 123.151 102.535,124.567 100.700,126.063 98.730 C 128.541 95.467,136.178 87.411,139.499 84.557 C 141.146 83.141,145.504 79.771,146.821 78.894 C 147.351 78.541,148.527 77.727,149.436 77.084 C 150.344 76.441,151.148 75.915,151.222 75.915 C 151.296 75.915,152.374 75.236,153.617 74.407 C 157.692 71.686,169.446 66.097,172.807 65.281 C 173.428 65.130,174.382 64.774,174.926 64.490 C 175.470 64.206,176.218 63.973,176.588 63.972 C 176.958 63.970,178.259 63.642,179.478 63.243 C 184.226 61.687,188.720 60.822,198.459 59.590 C 201.495 59.206,218.435 59.703,222.302 60.290 M199.925 67.448 C 194.984 68.281,189.314 71.472,185.038 75.825 C 181.713 79.211,180.719 79.739,177.634 79.760 C 175.035 79.777,166.905 82.505,166.089 83.634 C 165.983 83.780,165.307 84.202,164.588 84.571 C 155.096 89.436,151.498 105.583,157.733 115.331 C 160.451 119.579,168.703 125.624,171.788 125.626 C 174.333 125.627,175.929 127.453,176.462 130.970 C 176.707 132.588,177.076 134.692,177.282 135.645 C 177.626 137.244,178.199 141.011,179.215 148.362 C 179.435 149.952,179.953 153.084,180.366 155.322 C 180.779 157.560,181.118 159.882,181.118 160.482 C 181.118 163.957,186.184 169.098,187.823 167.287 C 188.364 166.689,188.439 164.881,188.439 152.455 C 188.439 137.210,188.396 136.848,186.393 135.536 C 183.843 133.865,181.577 127.888,182.003 123.953 C 183.224 112.673,193.666 109.132,198.917 118.217 C 200.623 121.168,200.874 129.264,199.326 131.359 C 198.849 132.004,198.459 132.654,198.459 132.803 C 198.459 132.953,197.418 134.159,196.146 135.483 L 193.834 137.891 193.834 152.530 L 193.834 167.169 195.048 167.592 C 196.902 168.239,205.960 168.149,206.516 167.479 C 206.841 167.088,206.932 162.646,206.853 151.067 L 206.744 135.191 205.890 134.551 C 205.421 134.199,204.640 133.628,204.156 133.281 C 202.972 132.434,202.984 115.469,204.169 114.600 C 204.766 114.162,204.832 114.573,205.010 119.858 C 205.193 125.315,205.594 127.095,206.448 126.244 C 206.611 126.082,206.830 123.160,206.936 119.750 C 207.220 110.611,208.457 110.688,208.478 119.846 C 208.491 125.113,208.639 125.685,209.868 125.225 C 210.914 124.834,211.175 123.477,211.175 118.449 C 211.175 114.772,211.512 113.535,212.097 115.060 C 212.226 115.396,212.331 117.715,212.331 120.216 C 212.331 125.200,212.668 126.092,214.234 125.254 C 214.973 124.859,215.029 124.481,215.035 119.929 C 215.038 117.234,215.200 114.778,215.394 114.471 C 215.961 113.574,216.119 115.083,216.333 123.469 C 216.542 131.624,216.382 132.612,214.659 133.819 C 212.768 135.143,212.722 135.576,212.719 151.865 L 212.717 167.121 213.698 167.568 C 214.238 167.814,216.137 168.015,217.919 168.015 C 219.701 168.015,221.600 167.814,222.140 167.568 L 223.121 167.121 223.121 157.374 L 223.121 147.628 221.563 146.376 L 220.005 145.124 220.118 130.269 C 220.245 113.663,220.191 113.985,222.929 113.242 C 224.971 112.688,226.881 113.200,227.901 114.575 C 228.697 115.647,228.712 116.035,228.902 140.779 L 229.094 165.896 229.926 166.014 C 231.992 166.309,233.337 163.011,233.902 156.262 C 234.114 153.719,234.545 149.990,234.857 147.977 C 235.170 145.963,235.612 142.408,235.838 140.077 C 236.065 137.746,236.411 134.884,236.608 133.719 C 236.805 132.553,237.075 130.744,237.207 129.699 C 237.497 127.411,238.933 125.853,241.130 125.444 C 246.421 124.458,253.965 117.340,256.660 110.790 C 258.618 106.029,257.787 96.811,255.038 92.811 C 254.652 92.249,254.335 91.671,254.335 91.528 C 254.335 91.106,251.566 87.818,250.037 86.425 C 245.753 82.519,239.890 80.046,233.394 79.405 L 230.372 79.106 227.999 76.618 C 225.678 74.185,222.347 71.542,220.424 70.608 C 219.894 70.351,219.200 69.985,218.882 69.796 C 214.830 67.381,206.467 66.345,199.925 67.448 M336.885 273.042 C 346.003 274.289,356.009 280.081,358.231 285.398 C 359.011 287.266,358.933 287.420,357.136 287.550 C 355.697 287.655,355.467 287.804,355.175 288.825 C 354.416 291.475,352.800 294.068,350.464 296.383 C 347.425 299.394,347.416 299.632,350.237 302.453 C 351.567 303.783,352.903 305.601,353.485 306.870 C 354.256 308.554,354.711 309.084,355.560 309.287 C 357.216 309.684,357.270 309.778,356.590 311.101 C 350.829 322.304,338.225 327.000,319.656 324.861 C 311.394 323.910,311.432 323.942,313.066 319.239 C 313.576 317.771,314.109 315.356,314.252 313.873 C 314.801 308.148,315.768 307.555,320.809 309.857 C 322.776 310.754,332.542 312.523,335.536 312.524 C 341.545 312.525,338.549 306.802,331.214 304.267 L 328.902 303.468 328.791 300.555 C 328.655 297.012,328.967 296.625,332.702 295.704 C 337.773 294.452,342.609 286.633,338.889 285.699 C 336.039 284.984,323.971 287.813,321.013 289.890 C 320.488 290.258,319.908 290.559,319.723 290.559 C 319.538 290.559,318.883 290.918,318.267 291.356 C 316.023 292.954,315.187 292.213,313.682 287.296 C 313.230 285.819,312.156 283.096,311.295 281.244 C 310.435 279.392,309.831 277.617,309.953 277.299 C 310.215 276.616,312.958 275.145,313.969 275.145 C 314.357 275.145,315.708 274.859,316.971 274.511 C 323.205 272.792,330.903 272.224,336.885 273.042 M96.959 276.538 C 100.110 279.180,102.284 280.666,105.948 282.682 C 109.439 284.603,109.215 285.052,102.312 289.986 C 97.566 293.378,91.399 297.110,90.538 297.110 C 89.951 297.110,89.350 298.648,89.613 299.476 C 90.390 301.926,94.245 306.664,101.232 313.756 C 106.964 319.574,106.976 319.839,101.582 321.213 C 98.996 321.872,95.222 323.284,92.027 324.790 C 88.687 326.364,88.636 326.332,86.054 321.058 C 82.775 314.359,76.963 306.303,74.861 305.543 C 73.237 304.955,73.069 306.109,73.609 314.159 C 74.194 322.872,74.396 322.429,69.610 322.923 C 66.046 323.291,62.347 324.058,58.079 325.314 C 54.368 326.407,53.725 325.768,54.874 322.130 C 58.256 311.427,59.911 289.314,58.188 277.842 C 57.700 274.587,57.889 274.499,63.712 275.276 C 66.349 275.627,69.698 275.915,71.155 275.915 C 74.777 275.915,74.949 276.214,74.336 281.432 C 74.082 283.590,73.857 287.611,73.835 290.366 L 73.796 295.376 74.688 295.279 C 75.807 295.159,82.639 288.347,84.971 285.028 C 85.395 284.425,86.525 282.865,87.482 281.561 C 88.439 280.257,89.731 278.410,90.353 277.457 C 93.092 273.256,93.052 273.262,96.959 276.538 M253.950 274.918 C 262.958 274.937,272.366 274.809,274.857 274.635 C 280.205 274.261,280.507 274.469,278.838 277.386 C 278.269 278.378,277.107 280.665,276.255 282.466 C 275.403 284.268,274.527 286.070,274.309 286.472 C 274.091 286.874,273.568 288.174,273.147 289.362 C 272.727 290.550,271.985 292.649,271.499 294.027 C 271.013 295.405,270.440 296.965,270.225 297.495 C 268.747 301.146,265.691 314.632,264.695 321.905 C 264.411 323.977,263.964 325.638,263.555 326.143 L 262.881 326.975 259.090 325.743 C 253.914 324.063,249.531 323.269,244.552 323.111 C 238.594 322.921,238.546 323.549,245.235 314.051 C 250.438 306.663,255.704 296.280,257.599 289.670 C 258.334 287.110,257.468 286.666,253.670 287.655 C 252.234 288.029,250.019 288.564,248.748 288.845 C 245.462 289.571,239.447 291.645,235.924 293.268 C 233.208 294.519,232.152 293.738,233.119 291.194 C 233.768 289.486,234.027 285.138,233.603 283.044 C 233.389 281.985,232.902 279.753,232.522 278.086 C 231.646 274.251,231.929 273.892,235.351 274.494 C 236.594 274.712,244.784 274.899,253.950 274.918 M149.669 274.759 C 153.256 274.759,153.869 275.369,152.287 277.366 C 150.590 279.509,150.574 279.484,155.095 281.708 C 159.926 284.085,163.031 287.075,165.008 291.253 C 166.662 294.747,166.893 304.027,165.407 307.274 C 164.934 308.308,164.547 309.315,164.547 309.511 C 164.547 310.182,161.542 314.254,159.863 315.858 C 155.045 320.463,147.319 323.652,138.885 324.518 C 134.288 324.989,125.251 324.748,123.570 324.109 L 122.511 323.706 123.491 322.265 C 125.010 320.029,125.124 320.188,120.617 318.278 C 104.117 311.286,105.121 289.108,122.351 279.972 C 128.677 276.618,142.662 273.554,146.756 274.625 C 147.038 274.699,148.349 274.759,149.669 274.759 M227.130 279.070 C 227.109 281.335,226.849 284.543,226.552 286.199 C 225.800 290.388,225.787 314.968,226.534 319.015 C 227.190 322.564,227.159 322.595,222.654 322.953 C 217.999 323.323,212.898 324.287,209.089 325.516 C 205.083 326.809,204.324 326.201,205.620 322.736 C 207.338 318.144,209.680 307.655,210.397 301.349 C 211.427 292.279,210.450 290.519,206.627 294.561 C 203.834 297.514,203.478 297.097,203.440 290.820 C 203.411 286.027,203.210 284.102,202.296 279.876 C 201.616 276.732,201.132 276.914,210.917 276.638 C 216.998 276.466,220.016 276.224,221.387 275.795 C 226.939 274.062,227.175 274.197,227.130 279.070 M145.045 289.114 L 143.894 290.751 138.902 290.751 C 129.448 290.751,123.082 296.152,123.809 303.555 C 124.376 309.324,130.250 314.558,130.250 309.294 C 130.250 307.734,130.907 307.532,133.272 308.366 C 145.916 312.824,157.715 298.031,148.663 289.069 C 146.664 287.090,146.466 287.092,145.045 289.114 M196.446 299.269 C 196.586 305.869,197.145 305.463,188.703 304.889 C 183.296 304.521,181.267 304.536,177.649 304.972 C 171.587 305.703,171.869 305.964,171.869 299.601 C 171.869 293.644,171.596 293.963,175.773 295.034 C 178.971 295.853,189.729 295.616,192.100 294.675 C 192.948 294.338,194.249 294.098,194.990 294.141 L 196.339 294.220 196.446 299.269 M305.363 294.261 C 306.259 294.604,306.268 304.092,305.374 304.834 C 304.889 305.237,303.581 305.246,298.534 304.882 C 292.624 304.456,289.450 304.570,283.851 305.410 C 281.607 305.746,281.480 305.430,281.494 299.549 C 281.507 293.932,281.359 294.127,284.970 294.977 C 288.647 295.844,299.041 295.659,301.541 294.683 C 303.219 294.028,304.413 293.896,305.363 294.261 " stroke="none" fill="#fbfbfb" fill-rule="evenodd"></path><path id="path2" d="M242.106 160.113 C 241.632 160.452,241.025 160.701,240.757 160.666 C 238.118 160.321,234.913 162.303,233.782 164.980 C 233.334 166.039,232.635 166.966,232.099 167.210 C 229.736 168.287,227.745 176.911,229.555 178.235 C 230.147 178.667,230.054 178.896,228.555 180.685 C 226.602 183.018,225.819 183.212,225.819 181.362 C 225.819 179.642,223.328 174.684,222.299 174.357 C 221.865 174.220,221.272 173.538,220.981 172.842 C 220.010 170.518,215.338 170.309,214.772 172.564 C 214.636 173.107,214.292 173.997,214.008 174.541 C 213.305 175.889,213.354 178.444,214.105 179.516 C 214.516 180.103,214.756 181.411,214.824 183.432 C 214.927 186.502,215.846 188.942,217.188 189.711 C 217.833 190.080,217.901 191.369,217.295 191.743 C 216.692 192.116,217.222 198.392,218.093 201.193 C 218.645 202.966,218.739 204.273,218.584 208.038 C 218.424 211.932,218.496 212.850,219.026 213.660 C 219.541 214.445,219.589 214.939,219.281 216.273 C 218.865 218.076,218.737 229.616,219.122 230.619 C 219.693 232.108,227.523 233.280,228.317 231.995 C 229.184 230.592,231.183 230.337,233.277 231.362 C 235.758 232.576,240.228 232.766,242.732 231.764 C 244.064 231.231,244.378 231.225,245.341 231.715 C 245.943 232.021,247.784 232.354,249.433 232.456 C 252.523 232.647,254.335 233.583,254.335 234.988 C 254.335 236.142,256.428 238.917,257.225 238.821 C 258.370 238.683,258.380 237.293,257.251 235.046 C 256.596 233.743,256.262 232.446,256.262 231.210 C 256.262 230.063,256.039 229.119,255.684 228.764 C 254.871 227.951,254.961 227.550,256.069 227.045 C 257.586 226.354,257.265 216.335,255.689 215.179 C 254.903 214.602,254.955 214.258,255.830 214.258 C 257.387 214.258,258.429 208.278,257.472 204.827 C 257.090 203.449,257.142 203.160,257.992 201.933 C 259.534 199.707,260.240 193.086,259.155 191.007 C 258.638 190.014,258.655 189.760,259.350 188.234 C 260.358 186.022,260.444 180.577,259.487 179.520 C 258.899 178.870,258.920 178.801,259.815 178.461 C 262.079 177.600,260.499 167.397,257.911 166.163 C 257.150 165.800,256.647 165.275,256.647 164.842 C 256.647 163.509,255.560 162.007,254.076 161.292 C 253.265 160.900,252.283 160.422,251.895 160.229 C 250.479 159.523,243.053 159.436,242.106 160.113 M179.622 171.099 C 178.906 171.268,177.902 171.858,177.391 172.409 C 176.880 172.960,176.205 173.410,175.891 173.410 C 174.929 173.410,172.027 176.387,171.101 178.323 C 170.619 179.330,170.004 180.618,169.733 181.184 C 169.203 182.294,169.336 182.647,170.295 182.680 C 171.279 182.715,172.581 184.649,172.227 185.549 C 172.060 185.973,171.911 186.108,171.896 185.849 C 171.881 185.590,171.313 185.235,170.635 185.059 C 168.063 184.392,165.379 188.657,165.332 193.488 C 165.315 195.150,164.670 197.140,163.720 198.459 C 162.651 199.943,161.716 204.103,161.685 207.514 C 161.658 210.540,161.638 210.599,160.654 210.714 C 159.779 210.815,159.591 211.100,159.178 212.946 C 158.917 214.109,158.459 215.531,158.160 216.105 C 157.515 217.341,157.468 218.281,158.001 219.277 C 158.307 219.849,158.236 220.090,157.668 220.393 C 157.251 220.616,156.848 221.381,156.715 222.203 C 156.588 222.986,156.054 224.077,155.530 224.627 C 155.005 225.176,154.043 227.073,153.392 228.842 C 152.741 230.611,151.950 232.427,151.634 232.878 C 151.318 233.329,151.060 234.014,151.060 234.401 C 151.060 234.788,150.212 235.920,149.176 236.916 C 144.858 241.070,146.338 243.011,150.830 239.085 C 153.240 236.978,154.003 236.809,156.822 237.759 C 159.376 238.619,160.528 238.730,160.886 238.150 C 161.615 236.971,164.162 238.356,164.162 239.932 C 164.162 240.485,164.865 241.033,166.763 241.961 C 168.194 242.661,169.660 243.387,170.022 243.575 C 171.489 244.337,173.641 244.415,174.326 243.731 C 175.081 242.975,175.035 242.950,175.853 244.561 C 176.460 245.755,178.866 247.430,180.732 247.958 C 181.262 248.108,182.266 248.488,182.962 248.803 C 185.706 250.042,187.663 247.428,190.519 238.714 C 191.261 236.451,192.334 234.052,192.969 233.239 C 194.366 231.449,196.532 227.198,196.532 226.246 C 196.532 225.859,196.965 224.902,197.495 224.121 C 198.025 223.341,198.459 222.557,198.459 222.381 C 198.459 222.204,198.737 221.829,199.077 221.547 C 199.417 221.264,199.853 220.680,200.047 220.247 C 200.241 219.814,200.996 218.507,201.726 217.341 C 203.135 215.090,203.338 214.283,202.666 213.610 C 202.079 213.023,202.989 211.669,204.270 211.222 C 205.846 210.673,208.090 208.134,209.343 205.483 C 209.971 204.155,210.783 202.907,211.148 202.712 C 212.102 202.202,213.093 199.502,212.630 198.675 C 212.386 198.239,212.417 197.642,212.721 196.907 C 213.369 195.341,212.065 193.468,210.282 193.406 C 207.917 193.324,207.125 193.504,206.600 194.244 C 206.310 194.655,205.722 194.990,205.294 194.990 C 204.836 194.990,203.348 196.178,201.672 197.881 C 200.108 199.470,198.601 200.771,198.323 200.771 C 197.276 200.771,196.888 198.103,197.655 196.179 C 198.319 194.516,199.348 190.439,199.755 187.861 C 200.501 183.140,196.042 174.832,193.166 175.584 C 192.174 175.844,191.750 175.195,192.274 174.216 C 192.723 173.378,189.021 171.627,187.589 172.001 C 187.209 172.101,186.898 172.033,186.898 171.851 C 186.898 170.942,182.300 170.467,179.622 171.099 M188.842 177.786 C 188.255 178.373,187.564 177.662,188.098 177.019 C 188.471 176.569,188.625 176.556,188.871 176.953 C 189.040 177.227,189.027 177.601,188.842 177.786 M218.882 177.672 C 218.882 177.872,218.622 178.035,218.304 178.035 C 217.709 178.035,217.539 177.580,217.973 177.146 C 218.281 176.838,218.882 177.186,218.882 177.672 M180.732 180.539 C 180.732 180.857,180.569 181.118,180.370 181.118 C 179.884 181.118,179.536 180.516,179.843 180.208 C 180.277 179.774,180.732 179.944,180.732 180.539 M225.434 183.815 C 225.434 184.239,225.260 184.586,225.048 184.586 C 224.836 184.586,224.663 184.239,224.663 183.815 C 224.663 183.391,224.836 183.044,225.048 183.044 C 225.260 183.044,225.434 183.391,225.434 183.815 M166.740 198.362 C 166.643 198.733,166.563 198.430,166.563 197.688 C 166.563 196.946,166.643 196.643,166.740 197.013 C 166.837 197.384,166.837 197.991,166.740 198.362 M208.423 199.187 C 208.804 199.429,208.825 199.593,208.501 199.793 C 207.904 200.162,206.825 199.721,207.127 199.232 C 207.418 198.761,207.734 198.751,208.423 199.187 M179.653 201.233 C 179.294 201.593,179.088 201.593,178.728 201.233 C 178.369 200.873,178.471 200.771,179.191 200.771 C 179.910 200.771,180.013 200.873,179.653 201.233 M199.807 202.441 C 199.807 203.445,199.052 203.382,198.908 202.366 C 198.820 201.742,198.941 201.509,199.293 201.627 C 199.576 201.721,199.807 202.087,199.807 202.441 M189.210 228.131 C 189.210 228.343,188.863 228.516,188.439 228.516 C 188.015 228.516,187.669 228.343,187.669 228.131 C 187.669 227.919,188.015 227.746,188.439 227.746 C 188.863 227.746,189.210 227.919,189.210 228.131 M160.308 230.443 C 160.308 231.079,160.135 231.599,159.923 231.599 C 159.711 231.599,159.538 231.079,159.538 230.443 C 159.538 229.807,159.711 229.287,159.923 229.287 C 160.135 229.287,160.308 229.807,160.308 230.443 " stroke="none" fill="#061a1d" fill-rule="evenodd"></path><path id="path3" d="M196.246 61.300 C 193.651 61.465,190.616 61.855,189.502 62.165 C 188.388 62.475,186.390 62.832,185.062 62.958 C 183.734 63.085,182.260 63.430,181.787 63.725 C 181.313 64.021,180.075 64.370,179.037 64.502 C 177.999 64.633,176.958 64.897,176.725 65.088 C 176.491 65.278,175.087 65.865,173.603 66.392 C 169.054 68.006,167.485 68.597,166.281 69.151 C 161.283 71.450,159.481 72.359,157.803 73.427 C 156.744 74.102,154.923 75.164,153.757 75.787 C 151.445 77.024,141.899 84.025,139.788 86.033 C 139.064 86.720,137.359 88.341,135.999 89.634 C 129.977 95.357,122.393 105.000,118.448 111.946 C 117.106 114.310,112.161 124.590,111.497 126.397 C 109.814 130.977,107.676 138.448,106.930 142.352 C 106.610 144.027,106.068 146.195,105.724 147.169 C 104.784 149.835,104.774 177.506,105.712 179.700 C 106.059 180.510,106.594 182.591,106.902 184.324 C 107.211 186.058,107.821 188.582,108.259 189.935 C 108.697 191.287,109.057 192.761,109.058 193.210 C 109.060 193.659,109.313 194.511,109.622 195.103 C 109.931 195.695,110.302 196.822,110.447 197.608 C 110.592 198.394,111.032 199.641,111.424 200.380 C 111.817 201.118,112.139 202.105,112.139 202.573 C 112.139 203.040,112.307 203.527,112.512 203.653 C 112.717 203.780,114.021 206.175,115.409 208.975 C 118.271 214.746,118.017 214.303,121.413 219.461 C 125.234 225.263,126.219 226.655,127.551 228.131 C 128.220 228.873,129.487 230.347,130.367 231.407 C 134.608 236.518,147.113 247.476,150.431 248.987 C 150.989 249.241,151.445 249.583,151.445 249.747 C 151.445 249.911,151.835 250.167,152.312 250.317 C 152.789 250.466,154.393 251.384,155.877 252.356 C 157.360 253.328,159.181 254.411,159.923 254.763 C 162.531 256.000,164.777 256.993,168.593 258.597 C 170.713 259.487,172.620 260.351,172.832 260.517 C 173.044 260.682,173.911 260.939,174.759 261.088 C 175.607 261.236,176.662 261.584,177.103 261.860 C 177.545 262.136,178.759 262.478,179.801 262.620 C 180.843 262.763,182.389 263.123,183.237 263.422 C 184.085 263.720,185.992 264.124,187.476 264.319 C 188.960 264.514,191.821 264.978,193.834 265.351 C 198.970 266.303,216.372 266.306,221.195 265.357 C 222.996 265.002,226.046 264.479,227.973 264.195 C 229.899 263.910,231.806 263.503,232.211 263.290 C 232.617 263.076,233.898 262.774,235.058 262.617 C 236.219 262.460,237.519 262.112,237.948 261.845 C 238.377 261.577,239.422 261.236,240.270 261.088 C 241.118 260.939,241.985 260.682,242.197 260.517 C 242.408 260.351,244.316 259.487,246.435 258.597 C 248.555 257.706,250.983 256.664,251.830 256.281 C 252.678 255.898,253.632 255.473,253.950 255.337 C 254.268 255.202,255.170 254.704,255.954 254.231 C 256.739 253.759,259.398 252.167,261.863 250.695 C 264.328 249.222,267.068 247.389,267.951 246.621 C 268.834 245.853,270.593 244.465,271.860 243.537 C 274.156 241.856,279.233 237.205,281.478 234.727 C 282.127 234.010,283.786 232.215,285.164 230.739 C 286.541 229.263,288.185 227.248,288.816 226.262 C 289.448 225.277,290.056 224.383,290.167 224.277 C 290.368 224.087,291.875 222.101,293.528 219.848 C 293.996 219.211,294.648 218.170,294.976 217.534 C 295.305 216.898,295.984 215.684,296.485 214.836 C 296.986 213.988,298.143 211.821,299.057 210.019 C 299.970 208.218,300.842 206.657,300.993 206.551 C 301.145 206.445,301.467 205.621,301.709 204.721 C 301.951 203.820,302.297 203.083,302.477 203.083 C 302.657 203.083,302.922 202.458,303.065 201.695 C 303.208 200.932,303.561 199.762,303.849 199.094 C 304.138 198.427,304.816 196.407,305.357 194.605 C 305.898 192.803,306.707 190.202,307.154 188.825 C 307.602 187.447,308.195 184.672,308.472 182.659 C 308.748 180.645,309.199 178.478,309.472 177.842 C 310.300 175.918,310.214 151.087,309.371 148.555 C 309.018 147.495,308.612 145.414,308.468 143.931 C 308.324 142.447,308.038 140.917,307.832 140.531 C 307.626 140.145,307.207 138.845,306.900 137.641 C 306.059 134.347,304.419 129.058,303.813 127.687 C 303.517 127.020,303.276 126.272,303.276 126.026 C 303.276 125.498,301.826 122.276,299.888 118.497 C 299.127 117.013,297.969 114.757,297.315 113.482 C 295.399 109.745,288.557 99.816,286.181 97.322 C 285.362 96.464,283.888 94.815,282.905 93.658 C 281.922 92.501,280.511 91.034,279.769 90.396 C 279.027 89.759,277.395 88.235,276.143 87.008 C 274.890 85.782,273.806 84.778,273.734 84.778 C 273.662 84.778,273.300 84.503,272.929 84.167 C 272.558 83.831,270.520 82.283,268.401 80.727 C 266.281 79.170,264.274 77.668,263.940 77.388 C 263.606 77.108,262.479 76.449,261.435 75.923 C 260.392 75.398,258.410 74.259,257.033 73.393 C 254.824 72.004,253.219 71.181,248.748 69.145 C 248.112 68.856,246.811 68.340,245.857 67.999 C 240.406 66.048,238.976 65.518,237.681 64.966 C 236.893 64.630,235.761 64.355,235.166 64.355 C 234.570 64.355,233.717 64.099,233.271 63.786 C 232.824 63.473,231.008 63.046,229.235 62.837 C 227.462 62.628,225.405 62.273,224.663 62.047 C 221.450 61.069,206.176 60.667,196.246 61.300 M216.378 64.781 C 226.633 65.676,236.166 67.719,240.270 69.901 C 240.906 70.239,241.686 70.522,242.004 70.531 C 242.322 70.539,243.276 70.881,244.123 71.291 C 244.971 71.700,245.898 72.041,246.183 72.049 C 246.469 72.056,247.162 72.306,247.725 72.606 C 248.287 72.905,249.615 73.578,250.674 74.101 C 251.734 74.624,253.208 75.420,253.950 75.871 C 254.692 76.321,255.819 76.961,256.455 77.292 C 257.091 77.624,258.304 78.310,259.152 78.817 C 260.000 79.325,261.301 80.075,262.042 80.485 C 262.784 80.895,263.998 81.774,264.740 82.439 C 265.482 83.103,266.566 83.939,267.148 84.296 C 267.731 84.653,268.208 85.081,268.208 85.247 C 268.208 85.413,268.448 85.549,268.742 85.549 C 269.274 85.549,280.539 95.812,280.539 96.296 C 280.539 96.436,281.623 97.683,282.948 99.066 C 284.273 100.448,285.871 102.352,286.500 103.295 C 287.128 104.238,288.169 105.690,288.812 106.521 C 292.460 111.239,299.769 125.224,300.943 129.737 C 301.173 130.620,301.617 131.834,301.931 132.434 C 302.244 133.035,302.501 133.869,302.502 134.289 C 302.504 134.709,302.835 135.923,303.239 136.987 C 308.087 149.764,308.108 177.423,303.281 190.559 C 302.891 191.618,302.456 193.170,302.314 194.007 C 302.172 194.844,301.810 195.880,301.510 196.309 C 301.209 196.738,300.958 197.440,300.950 197.870 C 300.943 198.300,300.602 199.345,300.193 200.193 C 299.783 201.040,299.442 201.920,299.435 202.148 C 299.423 202.538,296.488 208.409,295.115 210.790 C 294.932 211.108,294.521 211.888,294.203 212.524 C 291.094 218.726,283.318 228.956,277.264 234.807 C 274.622 237.360,271.821 239.852,270.689 240.655 C 270.091 241.079,268.823 242.095,267.871 242.912 C 266.340 244.226,260.667 248.170,260.307 248.170 C 260.232 248.170,259.117 248.869,257.831 249.723 C 256.544 250.578,254.321 251.802,252.890 252.444 C 251.460 253.086,249.658 253.947,248.888 254.359 C 248.117 254.770,247.264 255.106,246.991 255.106 C 246.719 255.106,246.222 255.345,245.888 255.638 C 245.553 255.931,243.545 256.778,241.426 257.521 C 235.577 259.571,233.878 260.077,231.985 260.333 C 231.031 260.461,229.600 260.811,228.804 261.109 C 228.008 261.408,226.101 261.758,224.565 261.889 C 223.029 262.019,220.819 262.408,219.653 262.753 C 216.896 263.569,198.533 263.645,195.761 262.852 C 194.807 262.579,192.477 262.186,190.583 261.979 C 188.689 261.772,186.694 261.376,186.151 261.101 C 185.608 260.825,184.123 260.472,182.852 260.318 C 181.581 260.163,180.107 259.819,179.577 259.553 C 179.046 259.287,178.043 258.961,177.347 258.829 C 175.838 258.542,171.663 256.960,168.973 255.657 C 167.911 255.142,166.827 254.721,166.565 254.721 C 166.303 254.721,166.089 254.551,166.089 254.343 C 166.089 254.135,165.616 253.846,165.039 253.701 C 163.289 253.262,158.576 250.759,154.335 248.016 C 149.927 245.165,148.548 244.191,147.206 242.983 C 146.464 242.314,145.164 241.306,144.316 240.741 C 140.697 238.329,130.880 227.923,127.152 222.548 C 126.419 221.492,125.602 220.395,125.337 220.112 C 125.072 219.830,124.855 219.449,124.855 219.268 C 124.855 219.086,124.630 218.708,124.355 218.428 C 123.542 217.600,120.037 211.555,118.922 209.056 C 118.354 207.784,117.723 206.484,117.518 206.166 C 116.041 203.868,113.691 198.054,112.767 194.412 C 112.498 193.353,112.093 192.139,111.867 191.715 C 111.641 191.291,111.331 189.990,111.177 188.825 C 111.022 187.659,110.725 186.493,110.516 186.234 C 110.306 185.975,109.899 184.241,109.611 182.380 C 109.323 180.520,108.823 177.437,108.500 175.530 C 107.130 167.436,108.432 145.530,110.518 141.561 C 110.725 141.169,111.012 140.067,111.158 139.114 C 111.304 138.160,111.758 136.382,112.166 135.162 C 112.575 133.943,112.909 132.732,112.909 132.472 C 112.909 131.556,116.489 122.986,117.540 121.387 C 117.749 121.069,118.092 120.376,118.304 119.846 C 118.515 119.316,118.832 118.622,119.008 118.304 C 119.185 117.987,119.724 116.946,120.208 115.992 C 121.059 114.312,121.551 113.492,123.912 109.827 C 125.419 107.487,130.230 100.866,130.776 100.381 C 131.017 100.167,132.341 98.701,133.719 97.122 C 139.918 90.019,149.778 81.953,156.840 78.208 C 157.794 77.702,158.834 77.080,159.152 76.825 C 160.025 76.125,168.258 72.062,168.804 72.062 C 169.066 72.062,169.992 71.739,170.863 71.344 C 172.652 70.534,173.563 70.200,178.998 68.355 C 181.118 67.636,183.979 66.852,185.356 66.613 C 186.734 66.374,188.259 66.030,188.744 65.848 C 189.230 65.666,192.004 65.322,194.910 65.083 C 197.815 64.845,201.407 64.512,202.890 64.345 C 205.745 64.024,208.849 64.124,216.378 64.781 " stroke="none" fill="#de840c" fill-rule="evenodd"></path><path id="path4" d="M198.459 59.590 C 188.720 60.822,184.226 61.687,179.478 63.243 C 178.259 63.642,176.958 63.970,176.588 63.972 C 176.218 63.973,175.470 64.206,174.926 64.490 C 174.382 64.774,173.428 65.130,172.807 65.281 C 169.446 66.097,157.692 71.686,153.617 74.407 C 152.374 75.236,151.296 75.915,151.222 75.915 C 151.148 75.915,150.344 76.441,149.436 77.084 C 148.527 77.727,147.351 78.541,146.821 78.894 C 140.731 82.949,130.947 92.299,126.063 98.730 C 124.567 100.700,123.151 102.535,122.916 102.807 C 122.229 103.603,118.879 108.758,118.230 110.019 C 117.903 110.655,116.659 112.854,115.465 114.905 C 114.271 116.956,113.295 118.779,113.295 118.957 C 113.295 119.134,112.972 119.884,112.578 120.622 C 112.184 121.361,111.731 122.399,111.572 122.929 C 111.413 123.459,111.049 124.412,110.764 125.048 C 109.494 127.884,106.374 137.458,106.365 138.548 C 106.361 138.979,106.097 140.279,105.777 141.438 C 105.256 143.326,104.687 147.252,103.655 156.069 C 103.220 159.794,103.222 167.022,103.660 170.713 C 103.849 172.303,104.199 175.424,104.439 177.649 C 104.679 179.875,105.209 182.985,105.617 184.562 C 106.025 186.139,106.358 187.774,106.358 188.196 C 106.358 189.771,110.731 202.513,112.517 206.138 C 112.680 206.471,113.442 208.044,114.210 209.634 C 114.977 211.224,115.995 213.164,116.473 213.947 C 116.950 214.729,118.169 216.770,119.181 218.481 C 127.150 231.964,142.281 246.412,156.840 254.440 C 161.310 256.905,168.067 260.116,168.785 260.116 C 169.015 260.116,169.882 260.462,170.713 260.886 C 171.544 261.310,172.534 261.663,172.913 261.670 C 173.293 261.677,174.297 262.018,175.145 262.428 C 175.992 262.837,176.968 263.178,177.312 263.185 C 177.656 263.193,178.697 263.467,179.624 263.796 C 192.869 268.487,222.261 268.489,235.405 263.800 C 236.332 263.469,237.347 263.198,237.659 263.198 C 237.971 263.198,238.773 262.941,239.441 262.627 C 240.109 262.312,241.435 261.805,242.389 261.499 C 258.996 256.169,277.335 242.920,289.378 227.553 C 292.199 223.954,295.568 219.154,295.568 218.736 C 295.568 218.634,296.259 217.511,297.104 216.240 C 298.722 213.804,301.827 207.798,302.313 206.166 C 302.470 205.636,302.734 205.029,302.900 204.817 C 303.338 204.255,305.747 197.933,306.717 194.798 C 308.361 189.486,308.698 188.204,309.252 185.164 C 309.561 183.468,309.983 181.214,310.190 180.154 C 311.180 175.083,311.783 163.942,311.359 158.534 C 310.523 147.860,310.383 146.846,308.723 139.499 C 307.361 133.471,304.444 124.664,302.861 121.800 C 302.677 121.467,301.808 119.634,300.930 117.726 C 300.052 115.819,298.834 113.513,298.222 112.601 C 297.610 111.690,297.110 110.876,297.110 110.793 C 297.110 110.216,292.107 102.833,289.144 99.037 C 283.756 92.133,274.202 82.944,268.208 78.902 C 267.678 78.545,266.502 77.727,265.593 77.084 C 264.685 76.441,263.874 75.915,263.790 75.915 C 263.707 75.915,262.576 75.209,261.277 74.347 C 258.822 72.716,247.749 67.052,247.016 67.052 C 246.786 67.052,245.918 66.705,245.087 66.281 C 244.256 65.857,243.266 65.505,242.886 65.498 C 242.507 65.490,241.503 65.149,240.655 64.740 C 239.807 64.330,238.811 63.989,238.441 63.982 C 238.071 63.975,236.770 63.639,235.551 63.236 C 226.996 60.409,207.295 58.472,198.459 59.590 M217.534 61.271 C 220.713 61.472,223.921 61.821,224.663 62.047 C 225.405 62.273,227.462 62.628,229.235 62.837 C 231.008 63.046,232.824 63.473,233.271 63.786 C 233.717 64.099,234.570 64.355,235.166 64.355 C 235.761 64.355,236.893 64.630,237.681 64.966 C 238.976 65.518,240.406 66.048,245.857 67.999 C 246.811 68.340,248.112 68.856,248.748 69.145 C 253.219 71.181,254.824 72.004,257.033 73.393 C 258.410 74.259,260.392 75.398,261.435 75.923 C 262.479 76.449,263.606 77.108,263.940 77.388 C 264.274 77.668,266.281 79.170,268.401 80.727 C 270.520 82.283,272.558 83.831,272.929 84.167 C 273.300 84.503,273.662 84.778,273.734 84.778 C 273.806 84.778,274.890 85.782,276.143 87.008 C 277.395 88.235,279.027 89.759,279.769 90.396 C 280.511 91.034,281.922 92.501,282.905 93.658 C 283.888 94.815,285.362 96.464,286.181 97.322 C 288.557 99.816,295.399 109.745,297.315 113.482 C 297.969 114.757,299.127 117.013,299.888 118.497 C 301.826 122.276,303.276 125.498,303.276 126.026 C 303.276 126.272,303.517 127.020,303.813 127.687 C 304.419 129.058,306.059 134.347,306.900 137.641 C 307.207 138.845,307.626 140.145,307.832 140.531 C 308.038 140.917,308.324 142.447,308.468 143.931 C 308.612 145.414,309.018 147.495,309.371 148.555 C 310.214 151.087,310.300 175.918,309.472 177.842 C 309.199 178.478,308.748 180.645,308.472 182.659 C 308.195 184.672,307.602 187.447,307.154 188.825 C 306.707 190.202,305.898 192.803,305.357 194.605 C 304.816 196.407,304.138 198.427,303.849 199.094 C 303.561 199.762,303.208 200.932,303.065 201.695 C 302.922 202.458,302.657 203.083,302.477 203.083 C 302.297 203.083,301.951 203.820,301.709 204.721 C 301.467 205.621,301.145 206.445,300.993 206.551 C 300.842 206.657,299.970 208.218,299.057 210.019 C 298.143 211.821,296.986 213.988,296.485 214.836 C 295.984 215.684,295.305 216.898,294.976 217.534 C 294.648 218.170,293.996 219.211,293.528 219.848 C 291.875 222.101,290.368 224.087,290.167 224.277 C 290.056 224.383,289.448 225.277,288.816 226.262 C 288.185 227.248,286.541 229.263,285.164 230.739 C 283.786 232.215,282.127 234.010,281.478 234.727 C 279.233 237.205,274.156 241.856,271.860 243.537 C 270.593 244.465,268.834 245.853,267.951 246.621 C 267.068 247.389,264.328 249.222,261.863 250.695 C 259.398 252.167,256.739 253.759,255.954 254.231 C 255.170 254.704,254.268 255.202,253.950 255.337 C 253.632 255.473,252.678 255.898,251.830 256.281 C 250.983 256.664,248.555 257.706,246.435 258.597 C 244.316 259.487,242.408 260.351,242.197 260.517 C 241.985 260.682,241.118 260.939,240.270 261.088 C 239.422 261.236,238.377 261.577,237.948 261.845 C 237.519 262.112,236.219 262.460,235.058 262.617 C 233.898 262.774,232.617 263.076,232.211 263.290 C 231.806 263.503,229.899 263.910,227.973 264.195 C 226.046 264.479,222.996 265.002,221.195 265.357 C 216.372 266.306,198.970 266.303,193.834 265.351 C 191.821 264.978,188.960 264.514,187.476 264.319 C 185.992 264.124,184.085 263.720,183.237 263.422 C 182.389 263.123,180.843 262.763,179.801 262.620 C 178.759 262.478,177.545 262.136,177.103 261.860 C 176.662 261.584,175.607 261.236,174.759 261.088 C 173.911 260.939,173.044 260.682,172.832 260.517 C 172.620 260.351,170.713 259.487,168.593 258.597 C 164.777 256.993,162.531 256.000,159.923 254.763 C 159.181 254.411,157.360 253.328,155.877 252.356 C 154.393 251.384,152.789 250.466,152.312 250.317 C 151.835 250.167,151.445 249.911,151.445 249.747 C 151.445 249.583,150.989 249.241,150.431 248.987 C 147.113 247.476,134.608 236.518,130.367 231.407 C 129.487 230.347,128.220 228.873,127.551 228.131 C 126.219 226.655,125.234 225.263,121.413 219.461 C 118.017 214.303,118.271 214.746,115.409 208.975 C 114.021 206.175,112.717 203.780,112.512 203.653 C 112.307 203.527,112.139 203.040,112.139 202.573 C 112.139 202.105,111.817 201.118,111.424 200.380 C 111.032 199.641,110.592 198.394,110.447 197.608 C 110.302 196.822,109.931 195.695,109.622 195.103 C 109.313 194.511,109.060 193.659,109.058 193.210 C 109.057 192.761,108.697 191.287,108.259 189.935 C 107.821 188.582,107.211 186.058,106.902 184.324 C 106.594 182.591,106.059 180.510,105.712 179.700 C 104.774 177.506,104.784 149.835,105.724 147.169 C 106.068 146.195,106.610 144.027,106.930 142.352 C 107.676 138.448,109.814 130.977,111.497 126.397 C 112.161 124.590,117.106 114.310,118.448 111.946 C 122.393 105.000,129.977 95.357,135.999 89.634 C 137.359 88.341,139.064 86.720,139.788 86.033 C 141.899 84.025,151.445 77.024,153.757 75.787 C 154.923 75.164,156.744 74.102,157.803 73.427 C 159.481 72.359,161.283 71.450,166.281 69.151 C 167.485 68.597,169.054 68.006,173.603 66.392 C 175.087 65.865,176.491 65.278,176.725 65.088 C 176.958 64.897,177.999 64.633,179.037 64.502 C 180.075 64.370,181.313 64.021,181.787 63.725 C 182.260 63.430,183.734 63.085,185.062 62.958 C 186.390 62.832,188.388 62.475,189.502 62.165 C 193.442 61.067,207.304 60.626,217.534 61.271 M202.890 64.345 C 201.407 64.512,197.815 64.845,194.910 65.083 C 192.004 65.322,189.230 65.666,188.744 65.848 C 188.259 66.030,186.734 66.374,185.356 66.613 C 183.979 66.852,181.118 67.636,178.998 68.355 C 173.563 70.200,172.652 70.534,170.863 71.344 C 169.992 71.739,169.066 72.062,168.804 72.062 C 168.258 72.062,160.025 76.125,159.152 76.825 C 158.834 77.080,157.794 77.702,156.840 78.208 C 149.778 81.953,139.918 90.019,133.719 97.122 C 132.341 98.701,131.017 100.167,130.776 100.381 C 129.285 101.706,121.975 112.503,120.208 115.992 C 119.724 116.946,119.185 117.987,119.008 118.304 C 118.832 118.622,118.515 119.316,118.304 119.846 C 118.092 120.376,117.749 121.069,117.540 121.387 C 116.489 122.986,112.909 131.556,112.909 132.472 C 112.909 132.732,112.575 133.943,112.166 135.162 C 111.758 136.382,111.304 138.160,111.158 139.114 C 111.012 140.067,110.725 141.169,110.518 141.561 C 108.432 145.530,107.130 167.436,108.500 175.530 C 108.823 177.437,109.323 180.520,109.611 182.380 C 109.899 184.241,110.306 185.975,110.516 186.234 C 110.725 186.493,111.022 187.659,111.177 188.825 C 111.331 189.990,111.641 191.291,111.867 191.715 C 112.093 192.139,112.498 193.353,112.767 194.412 C 113.691 198.054,116.041 203.868,117.518 206.166 C 117.723 206.484,118.354 207.784,118.922 209.056 C 120.037 211.555,123.542 217.600,124.355 218.428 C 124.630 218.708,124.855 219.086,124.855 219.268 C 124.855 219.449,125.072 219.830,125.337 220.112 C 125.602 220.395,126.419 221.492,127.152 222.548 C 130.880 227.923,140.697 238.329,144.316 240.741 C 145.164 241.306,146.464 242.314,147.206 242.983 C 150.735 246.160,162.020 252.943,165.039 253.701 C 165.616 253.846,166.089 254.135,166.089 254.343 C 166.089 254.551,166.303 254.721,166.565 254.721 C 166.827 254.721,167.911 255.142,168.973 255.657 C 171.663 256.960,175.838 258.542,177.347 258.829 C 178.043 258.961,179.046 259.287,179.577 259.553 C 180.107 259.819,181.581 260.163,182.852 260.318 C 184.123 260.472,185.608 260.825,186.151 261.101 C 186.694 261.376,188.689 261.772,190.583 261.979 C 192.477 262.186,194.807 262.579,195.761 262.852 C 198.533 263.645,216.896 263.569,219.653 262.753 C 220.819 262.408,223.029 262.019,224.565 261.889 C 226.101 261.758,228.008 261.408,228.804 261.109 C 229.600 260.811,231.031 260.461,231.985 260.333 C 233.878 260.077,235.577 259.571,241.426 257.521 C 243.545 256.778,245.553 255.931,245.888 255.638 C 246.222 255.345,246.719 255.106,246.991 255.106 C 247.264 255.106,248.117 254.770,248.888 254.359 C 249.658 253.947,251.460 253.086,252.890 252.444 C 254.321 251.802,256.544 250.578,257.831 249.723 C 259.117 248.869,260.232 248.170,260.307 248.170 C 260.667 248.170,266.340 244.226,267.871 242.912 C 268.823 242.095,270.091 241.079,270.689 240.655 C 277.815 235.599,289.858 221.192,294.203 212.524 C 294.521 211.888,294.932 211.108,295.115 210.790 C 296.488 208.409,299.423 202.538,299.435 202.148 C 299.442 201.920,299.783 201.040,300.193 200.193 C 300.602 199.345,300.943 198.300,300.950 197.870 C 300.958 197.440,301.209 196.738,301.510 196.309 C 301.810 195.880,302.172 194.844,302.314 194.007 C 302.456 193.170,302.891 191.618,303.281 190.559 C 308.108 177.423,308.087 149.764,303.239 136.987 C 302.835 135.923,302.504 134.709,302.502 134.289 C 302.501 133.869,302.244 133.035,301.931 132.434 C 301.617 131.834,301.173 130.620,300.943 129.737 C 299.769 125.224,292.460 111.239,288.812 106.521 C 288.169 105.690,287.128 104.238,286.500 103.295 C 285.871 102.352,284.273 100.448,282.948 99.066 C 281.623 97.683,280.539 96.436,280.539 96.296 C 280.539 95.812,269.274 85.549,268.742 85.549 C 268.448 85.549,268.208 85.413,268.208 85.247 C 268.208 85.081,267.731 84.653,267.148 84.296 C 266.566 83.939,265.482 83.103,264.740 82.439 C 263.998 81.774,262.784 80.895,262.042 80.485 C 261.301 80.075,260.000 79.325,259.152 78.817 C 258.304 78.310,257.091 77.624,256.455 77.292 C 255.819 76.961,254.692 76.321,253.950 75.871 C 253.208 75.420,251.734 74.624,250.674 74.101 C 249.615 73.578,248.287 72.905,247.725 72.606 C 247.162 72.306,246.469 72.056,246.183 72.049 C 245.898 72.041,244.971 71.700,244.123 71.291 C 243.276 70.881,242.322 70.539,242.004 70.531 C 241.686 70.522,240.906 70.239,240.270 69.901 C 237.636 68.500,229.080 66.264,223.507 65.519 C 215.851 64.496,206.351 63.955,202.890 64.345 M225.819 67.199 C 233.765 68.910,235.171 69.265,237.580 70.175 C 238.644 70.577,239.749 70.906,240.036 70.906 C 241.146 70.906,254.311 77.190,257.996 79.479 C 270.462 87.221,277.855 94.034,287.375 106.551 C 288.922 108.586,289.788 109.804,289.788 109.947 C 289.788 110.149,292.247 114.262,292.775 114.945 C 293.827 116.302,298.102 125.406,299.601 129.480 C 300.186 131.069,300.906 132.977,301.203 133.719 C 301.499 134.461,301.907 135.848,302.110 136.802 C 302.313 137.755,302.729 139.576,303.034 140.848 C 305.438 150.850,306.194 160.620,305.390 171.291 C 305.102 175.106,304.671 179.094,304.431 180.154 C 304.191 181.214,303.769 183.295,303.492 184.778 C 302.838 188.291,301.367 193.921,300.975 194.412 C 300.805 194.624,300.544 195.374,300.393 196.078 C 300.243 196.782,299.604 198.516,298.975 199.931 C 298.346 201.347,297.562 203.112,297.234 203.854 C 290.549 218.964,279.358 232.946,266.150 242.691 C 264.633 243.810,263.131 244.940,262.813 245.202 C 262.495 245.463,261.368 246.175,260.308 246.784 C 259.249 247.393,258.121 248.110,257.803 248.377 C 256.813 249.209,246.968 254.086,243.931 255.250 C 237.737 257.622,231.028 259.730,229.674 259.730 C 229.170 259.730,227.533 260.058,226.036 260.458 C 222.680 261.356,213.695 262.202,207.514 262.202 C 192.387 262.202,178.655 259.105,165.318 252.686 C 153.177 246.843,142.948 239.235,134.682 229.902 C 133.198 228.227,131.811 226.666,131.598 226.434 C 130.434 225.162,125.559 218.389,124.499 216.570 C 123.819 215.405,122.674 213.497,121.954 212.331 C 121.233 211.166,120.110 209.085,119.459 207.707 C 118.807 206.329,118.125 204.930,117.943 204.597 C 117.604 203.975,116.183 200.419,114.643 196.339 C 113.344 192.899,111.750 187.583,111.753 186.705 C 111.755 186.281,111.412 184.461,110.993 182.659 C 108.739 172.988,108.748 154.656,111.011 145.004 C 111.419 143.263,111.753 141.455,111.753 140.985 C 111.753 139.412,116.830 124.787,117.754 123.699 C 118.023 123.382,118.371 122.601,118.526 121.965 C 118.681 121.329,119.128 120.396,119.519 119.890 C 119.911 119.385,120.231 118.658,120.231 118.275 C 120.231 117.892,120.385 117.484,120.573 117.368 C 120.760 117.252,122.016 115.291,123.364 113.010 C 127.172 106.563,138.145 93.001,140.826 91.429 C 141.099 91.268,142.430 90.155,143.783 88.956 C 145.136 87.756,147.110 86.151,148.170 85.389 C 151.500 82.994,156.885 79.383,157.126 79.383 C 157.253 79.383,157.631 79.143,157.966 78.849 C 158.655 78.243,160.646 77.215,166.474 74.456 C 170.894 72.364,175.053 70.753,178.805 69.679 C 183.741 68.266,185.469 67.839,187.861 67.438 C 189.345 67.190,191.146 66.806,191.863 66.587 C 196.973 65.022,217.415 65.390,225.819 67.199 " stroke="none" fill="#cc9a48" fill-rule="evenodd"></path></g></svg>